name Walk7.mot
datacolumns 19
datarows 17
range 3.06100000 3.07700000
endheader

                time	   L_ground_force_vx	   L_ground_force_vy	   L_ground_force_vz	   L_ground_force_px	   L_ground_force_py	   L_ground_force_pz	   R_ground_force_vx	   R_ground_force_vy	   R_ground_force_vz	   R_ground_force_px	   R_ground_force_py	   R_ground_force_pz	   L_ground_torque_x	   L_ground_torque_y	   L_ground_torque_z	   R_ground_torque_x	   R_ground_torque_y	   R_ground_torque_z	
          3.06100000	         33.56492291	        935.20616850	         75.93133031	         -0.22379368	          0.00000000	         -0.10117369	         -0.02402381	          0.38207800	          0.01517586	          0.00021148	          0.00000000	          0.00015065	          0.00000000	          0.53890567	          0.00000000	          0.00000000	          0.00538701	          0.00000000	
          3.06200000	         33.95033989	        936.90136695	         76.06329288	         -0.22341446	          0.00000000	         -0.10118988	         -0.02578252	          0.39915356	          0.01546915	          0.00021731	          0.00000000	          0.00015470	          0.00000000	          0.54147535	          0.00000000	          0.00000000	          0.00576241	          0.00000000	
          3.06300000	         34.33427962	        938.57717688	         76.19727389	         -0.22303427	          0.00000000	         -0.10120640	         -0.02759818	          0.41616740	          0.01572580	          0.00022278	          0.00000000	          0.00015848	          0.00000000	          0.54435145	          0.00000000	          0.00000000	          0.00614889	          0.00000000	
          3.06400000	         34.71699613	        940.23290370	         76.33320122	         -0.22265315	          0.00000000	         -0.10122324	         -0.02946858	          0.43304352	          0.01594136	          0.00022785	          0.00000000	          0.00016196	          0.00000000	          0.54752367	          0.00000000	          0.00000000	          0.00654588	          0.00000000	
          3.06500000	         35.09874461	        941.86789385	         76.47099228	         -0.22227115	          0.00000000	         -0.10124039	         -0.03139108	          0.44969942	          0.01611111	          0.00023245	          0.00000000	          0.00016510	          0.00000000	          0.55098260	          0.00000000	          0.00000000	          0.00695274	          0.00000000	
          3.06600000	         35.47977978	        943.48153729	         76.61055507	         -0.22188833	          0.00000000	         -0.10125784	         -0.03336260	          0.46604586	          0.01623009	          0.00023651	          0.00000000	          0.00016784	          0.00000000	          0.55471934	          0.00000000	          0.00000000	          0.00736869	          0.00000000	
          3.06700000	         35.86035509	        945.07327038	         76.75178899	         -0.22150474	          0.00000000	         -0.10127556	         -0.03537953	          0.48198656	          0.01629310	          0.00023997	          0.00000000	          0.00017014	          0.00000000	          0.55872510	          0.00000000	          0.00000000	          0.00779286	          0.00000000	
          3.06800000	         36.24072303	        946.64257795	         76.89458525	         -0.22112044	          0.00000000	         -0.10129355	         -0.03743776	          0.49741799	          0.01629469	          0.00024277	          0.00000000	          0.00017196	          0.00000000	          0.56299078	          0.00000000	          0.00000000	          0.00822426	          0.00000000	
          3.06900000	         36.62113612	        948.18899389	         77.03882700	         -0.22073549	          0.00000000	         -0.10131177	         -0.03953265	          0.51222910	          0.01622912	          0.00024482	          0.00000000	          0.00017324	          0.00000000	          0.56750658	          0.00000000	          0.00000000	          0.00866179	          0.00000000	
          3.07000000	         37.00184795	        949.71210039	         77.18438907	         -0.22034996	          0.00000000	         -0.10133021	         -0.04165894	          0.52630107	          0.01609043	          0.00024605	          0.00000000	          0.00017392	          0.00000000	          0.57226182	          0.00000000	          0.00000000	          0.00910420	          0.00000000	
          3.07100000	         37.38311359	        951.21152612	         77.33113772	         -0.21996390	          0.00000000	         -0.10134883	         -0.04381076	          0.53950710	          0.01587241	          0.00024638	          0.00000000	          0.00017394	          0.00000000	          0.57724476	          0.00000000	          0.00000000	          0.00955012	          0.00000000	
          3.07200000	         37.76518907	        952.68694405	         77.47893048	         -0.21957740	          0.00000000	         -0.10136763	         -0.04598161	          0.55171218	          0.01556857	          0.00024572	          0.00000000	          0.00017325	          0.00000000	          0.58244274	          0.00000000	          0.00000000	          0.00999803	          0.00000000	
          3.07300000	         38.14833004	        954.13806947	         77.62761631	         -0.21919052	          0.00000000	         -0.10138656	         -0.04816429	          0.56277291	          0.01517220	          0.00024398	          0.00000000	          0.00017177	          0.00000000	          0.58784236	          0.00000000	          0.00000000	          0.01044628	          0.00000000	
          3.07400000	         38.53279034	        955.56465819	         77.77703613	         -0.21880332	          0.00000000	         -0.10140560	         -0.05035087	          0.57253725	          0.01467634	          0.00024108	          0.00000000	          0.00016946	          0.00000000	          0.59342975	          0.00000000	          0.00000000	          0.01089304	          0.00000000	
          3.07500000	         38.91882091	        956.96650541	         77.92702392	         -0.21841588	          0.00000000	         -0.10142474	         -0.05253270	          0.58084441	          0.01407379	          0.00023691	          0.00000000	          0.00016622	          0.00000000	          0.59919075	          0.00000000	          0.00000000	          0.01133633	          0.00000000	
          3.07600000	         39.30666966	        958.34344565	         78.07740795	         -0.21802828	          0.00000000	         -0.10144395	         -0.05470032	          0.58752469	          0.01335712	          0.00023138	          0.00000000	          0.00016200	          0.00000000	          0.60511091	          0.00000000	          0.00000000	          0.01177399	          0.00000000	
          3.07700000	         39.69658222	        959.69535408	         78.22801216	         -0.21764059	          0.00000000	         -0.10146321	         -0.05684346	          0.59239930	          0.01251870	          0.00022437	          0.00000000	          0.00015672	          0.00000000	          0.61117531	          0.00000000	          0.00000000	          0.01220369	          0.00000000	
